<svg xmlns="http://www.w3.org/2000/svg" xmlns:xlink="http://www.w3.org/1999/xlink" fill="none" version="1.1" width="24" height="24" viewBox="0 0 24 24"><defs><clipPath id="master_svg0_0_709"><rect x="0" y="0" width="24" height="24" rx="0"/></clipPath></defs><g clip-path="url(#master_svg0_0_709)"><g><g></g><g><path d="M5,3C5,3,5,19,5,19C5,19,21,19,21,19C21,19,21,21,21,21C21,21,3,21,3,21C3,21,3,3,3,3C3,3,5,3,5,3C5,3,5,3,5,3ZM19.94,5.9399999999999995C19.94,5.9399999999999995,22.06,8.059999999999999,22.06,8.059999999999999C22.06,8.059999999999999,16,14.122,16,14.122C16,14.122,13,11.122,13,11.122C13,11.122,9.059999999999999,15.062,9.059999999999999,15.062C9.059999999999999,15.062,6.9399999999999995,12.94,6.9399999999999995,12.94C6.9399999999999995,12.94,13,6.88,13,6.88C13,6.88,16,9.879999999999999,16,9.879999999999999C16,9.879999999999999,19.94,5.9399999999999995,19.94,5.9399999999999995C19.94,5.9399999999999995,19.94,5.9399999999999995,19.94,5.9399999999999995C19.94,5.9399999999999995,19.94,5.9399999999999995,19.94,5.9399999999999995Z" fill="#52575D" fill-opacity="1"/></g></g></g></svg>